<?xml version="1.0" encoding="utf-8"?>
<svg xmlns="http://www.w3.org/2000/svg" viewBox="533.2024 -208.2389 666.4976 871.1552" width="666.498px" height="871.155px">
  <g id="svg1376">
    <path style="fill: black; fill-opacity: 1; fill-rule: evenodd; stroke: rgb(0, 0, 0); stroke-width: 1; stroke-linecap: butt; stroke-linejoin: miter; stroke-opacity: 1;" d="M 857.445 -188.23 C 760.777 -186.74 673.614 -138.62 680.539 -115.08 C 687.27 -92.189 722.331 -25.515 717.945 50.456 C 707.288 55.669 657.226 82.418 662.258 122.675 C 665.825 151.208 684.213 166.245 711.445 172.675 C 713.225 184.961 715.638 201.814 718.07 219.206 C 708.199 221.05 695.859 223.919 691.102 227.487 C 682.66 233.818 672.11 252.11 653.82 289.393 C 636.284 325.142 613.71 337.937 615.82 345.675 C 617.931 353.413 649.602 375.925 649.602 375.925 C 649.602 375.925 584.861 398.42 563.758 408.268 C 542.654 418.117 516.353 438.757 547.57 454.018 C 579.226 469.494 578.364 463.789 626.383 503.237 C 664.331 534.411 681.322 556.988 690.383 567.956 C 703.748 584.135 715.718 555.298 734.008 525.05 C 748.444 501.175 766.358 486.359 752.289 458.925 C 740.504 435.943 720.648 392.796 722.758 366.768 C 724.802 341.554 730.145 331.527 730.477 330.925 C 730.775 331.097 740.342 336.651 741.727 344.268 C 743.134 352.006 742.042 385.429 750.164 407.581 C 757.902 428.684 775.519 449.086 786.07 437.831 C 796.622 426.576 828.953 370.291 846.539 354.112 C 864.125 337.933 879.6 326.687 883.82 334.425 C 888.041 342.163 852.872 382.97 809.258 454.018 C 765.644 525.067 719.921 604.535 705.852 635.487 C 691.783 666.439 697.42 665.756 719.227 659.425 C 742.471 645.907 997.364 581.379 1018.2 578.518 C 1039.52 575.59 1049.14 565.153 1032.26 545.456 C 1015.38 525.759 916.696 422.412 909.164 403.362 C 897.205 373.114 899.325 370.993 923.945 392.8 C 938.115 405.349 952.76 422.341 948.539 399.831 C 944.318 377.32 935.181 325.29 933.07 311.925 C 930.989 298.741 931.659 288.708 942.914 284.487 C 954.169 280.266 959.543 286.877 962.633 299.237 C 966.854 316.12 976.693 347.776 980.914 365.362 C 983.887 377.75 984.44 382.958 997.102 378.737 C 1009.76 374.516 1059 353.427 1074.48 347.8 C 1089.95 342.172 1099.1 340.763 1104.73 352.018 C 1110.35 363.274 1092.76 368.891 1082.91 374.518 C 1073.07 380.146 997.076 412.515 985.82 419.55 C 974.565 426.584 970.345 432.198 985.82 449.081 C 1001.3 465.964 1036.47 501.137 1050.54 515.206 C 1064.61 529.275 1067.24 528.553 1092.76 525.768 C 1131.45 521.548 1184.22 474.399 1192.66 461.737 C 1201.11 449.075 1203.92 436.429 1189.85 427.987 C 1175.78 419.546 1150.45 399.834 1143.41 392.8 C 1136.38 385.765 1125.13 382.962 1132.16 368.893 C 1139.2 354.824 1133.55 355.524 1120.88 342.862 C 1108.22 330.2 1084.81 304.775 1081.51 273.206 C 1075.18 212.709 1058.22 230.574 1066.38 200.425 C 1075.84 165.481 1091.11 169.386 1102.26 171.425 C 1107.93 173.738 1112.31 173.065 1115.26 167.706 C 1129.67 141.534 1127.64 94.671 1049.16 73.393 C 1045.94 -11.61 1073.85 -62.422 1099.79 -131.98 C 1001.31 -182.63 962.018 -188.23 862.039 -188.23 C 860.885 -188.23 859.722 -188.25 858.57 -188.23 C 858.191 -188.23 857.824 -188.24 857.445 -188.23 Z M 1043.48 -120.54 C 1043.55 -120.55 1043.62 -120.54 1043.69 -120.54 C 1043.77 -120.55 1043.84 -120.54 1043.91 -120.54 C 1043.99 -120.55 1044.06 -120.54 1044.13 -120.54 C 1044.28 -120.55 1044.43 -120.54 1044.57 -120.54 C 1044.71 -120.55 1044.87 -120.54 1045.01 -120.54 C 1055.21 -120.76 1062.5 -118.54 1063.19 -117.26 C 1063.2 -117.25 1063.22 -117.22 1063.23 -117.2 C 1064.55 -113.42 1050.13 -82.823 1039.51 -47.013 C 1028.89 -11.203 1023.12 27.018 1018.2 28.425 C 1008.35 31.238 1004.14 21.394 990.07 19.987 C 976.001 18.58 970.356 27.022 961.914 18.581 C 953.473 10.139 957.684 -22.237 983.008 -77.107 C 998.696 -111.1 1025.25 -119.75 1043.48 -120.54 Z M 805.445 -5.107 C 805.605 -5.11 805.756 -5.104 805.914 -5.107 C 806.077 -5.11 806.253 -5.104 806.414 -5.107 C 806.58 -5.109 806.75 -5.105 806.914 -5.107 C 807.264 -5.111 807.604 -5.105 807.945 -5.107 C 815.921 -5.151 821.337 -4.458 823.695 -2.169 C 827.917 1.934 827.924 13.621 828.945 34.018 C 830.228 59.761 829.367 71.452 824.383 76.581 C 819.767 81.331 811.528 81.021 791.383 81.518 C 771.735 82.016 763.547 82.246 759.008 77.893 C 754.469 73.541 753.352 61.847 753.352 40.956 C 753.352 20.064 752.244 5.781 755.602 1.112 C 758.841 -3.391 771.275 -3.405 788.164 -4.294 C 794.709 -4.639 800.499 -4.996 805.445 -5.107 Z M 788.945 13.55 C 788.528 13.568 788.106 13.604 787.664 13.612 C 780.95 13.73 774.229 17.834 774.727 36.487 C 775.224 55.14 775.477 62.362 787.664 62.362 C 802.587 62.362 804.067 55.396 803.32 31.768 C 802.783 14.916 801.784 13.479 790.977 13.55 C 790.723 13.551 790.46 13.545 790.195 13.55 C 789.997 13.553 789.806 13.544 789.602 13.55 C 789.448 13.554 789.291 13.544 789.133 13.55 C 789.074 13.552 789.005 13.547 788.945 13.55 Z M 968.852 50.362 C 968.888 50.359 968.939 50.364 968.977 50.362 C 968.983 50.362 969.001 50.362 969.008 50.362 C 969.048 50.362 969.097 50.363 969.133 50.362 C 969.326 50.356 969.504 50.364 969.695 50.362 C 993.858 50.121 1011.5 58.621 1011.16 64.987 C 1010.56 76.314 956.816 67.263 882.414 107.925 C 775.325 166.45 758.633 153.631 758.633 147.3 C 758.633 140.969 778.296 135.957 805.758 121.268 C 836.006 105.089 883.847 79.777 926.758 60.081 C 941.341 53.387 955.796 50.666 968.539 50.393 C 968.648 50.391 968.742 50.371 968.852 50.362 Z M 980.633 118.3 C 994.11 117.832 1008.25 124.405 1031.57 134.643 C 1060.41 147.305 1054.06 159.26 1051.94 177.55 C 1049.84 195.839 1039.31 214.127 1028.76 214.831 C 1018.21 215.534 1023.13 204.29 1021.73 192.331 C 1020.32 180.372 1016.09 163.487 1002.73 163.487 C 989.361 163.487 990.056 181.777 987.945 196.55 C 985.835 211.322 975.294 226.077 964.039 234.518 C 953.03 242.775 931.923 252.383 930.328 252.8 C 931.795 251.247 950.261 189.801 955.574 171.929 C 963.312 145.902 954.188 124.786 971.07 119.862 C 974.302 118.92 977.443 118.41 980.633 118.3 Z M 935.633 121.893 C 935.636 121.894 935.662 121.893 935.664 121.893 C 940.35 142.992 942.992 184.945 892.633 276.3 C 866.264 324.134 843.038 326.322 812.789 329.487 C 749.413 336.12 737.197 310.39 742.227 291.518 C 751.488 284.261 762.325 277.456 769.164 277.456 C 787.454 277.456 795.904 288.707 817.008 285.893 C 838.111 283.08 855.008 256.331 855.008 256.331 C 855.008 256.331 831.076 260.557 818.414 245.081 C 808.242 232.648 798.188 225.743 785.258 222.737 C 784.09 215.148 783.408 206.183 784.664 198.643 C 785.996 190.652 788.91 181.094 791.602 173.237 C 794.489 172.735 797.351 172.184 800.195 171.581 C 800.198 171.581 800.224 171.581 800.227 171.581 C 807.787 171.953 810.371 175.11 816.289 181.768 C 827.544 194.43 839.512 202.865 864.133 195.831 C 884.436 190.03 897.195 173.339 898.602 155.05 C 899.41 144.547 903.697 137.041 910.664 131.237 C 910.67 131.231 910.69 131.211 910.695 131.206 C 910.706 131.206 910.747 131.206 910.758 131.206 C 910.763 131.2 910.784 131.18 910.789 131.175 C 910.792 131.172 910.818 131.147 910.82 131.143 C 919.107 127.798 927.362 124.666 935.633 121.893 Z M 735.477 176.112 C 744.657 176.727 754.445 176.732 764.695 176.237 L 756.445 225.768 C 750.48 228.298 744.068 231.594 737.945 235.05 C 736.268 213.005 735.674 191.155 735.477 176.112 Z" id="path2260"/>
    <path style="fill: white; fill-opacity: 1; fill-rule: evenodd; stroke: rgb(0, 0, 0); stroke-width: 1; stroke-linecap: butt; stroke-linejoin: miter; stroke-opacity: 1;" d="M 857.445 -208.23 C 760.777 -206.74 673.614 -158.62 680.539 -135.07 C 687.27 -112.19 722.331 -45.515 717.945 30.456 C 707.288 35.669 657.226 62.418 662.258 102.675 C 665.825 131.208 684.213 146.245 711.445 152.675 C 713.225 164.961 715.638 181.814 718.07 199.206 C 708.199 201.05 695.859 203.919 691.102 207.487 C 682.66 213.818 672.11 232.11 653.82 269.393 C 636.284 305.142 613.71 317.937 615.82 325.675 C 617.931 333.413 649.602 355.925 649.602 355.925 C 649.602 355.925 584.861 378.42 563.758 388.268 C 542.654 398.117 516.353 418.757 547.57 434.018 C 579.226 449.494 578.364 443.789 626.383 483.237 C 664.331 514.411 681.322 536.988 690.383 547.956 C 703.748 564.135 715.718 535.298 734.008 505.05 C 748.444 481.175 766.358 466.359 752.289 438.925 C 740.504 415.943 720.648 372.796 722.758 346.768 C 724.802 321.554 730.145 311.527 730.477 310.925 C 730.775 311.097 740.342 316.651 741.727 324.268 C 743.134 332.006 742.042 365.429 750.164 387.581 C 757.902 408.684 775.519 429.086 786.07 417.831 C 796.622 406.576 828.953 350.291 846.539 334.112 C 864.125 317.933 879.6 306.687 883.82 314.425 C 888.041 322.163 852.872 362.97 809.258 434.018 C 765.644 505.067 719.921 584.535 705.852 615.487 C 691.783 646.439 697.42 645.756 719.227 639.425 C 742.471 625.907 997.364 561.379 1018.2 558.518 C 1039.52 555.59 1049.14 545.153 1032.26 525.456 C 1015.38 505.759 916.696 402.412 909.164 383.362 C 897.205 353.114 899.325 350.993 923.945 372.8 C 938.115 385.349 952.76 402.341 948.539 379.831 C 944.318 357.32 935.181 305.29 933.07 291.925 C 930.989 278.741 931.659 268.708 942.914 264.487 C 954.169 260.266 959.543 266.877 962.633 279.237 C 966.854 296.12 976.693 327.776 980.914 345.362 C 983.887 357.75 984.44 362.958 997.102 358.737 C 1009.76 354.516 1059 333.427 1074.48 327.8 C 1089.95 322.172 1099.1 320.763 1104.73 332.018 C 1110.35 343.274 1092.76 348.891 1082.91 354.518 C 1073.07 360.146 997.076 392.515 985.82 399.55 C 974.565 406.584 970.345 412.198 985.82 429.081 C 1001.3 445.964 1036.47 481.137 1050.54 495.206 C 1064.61 509.275 1067.24 508.553 1092.76 505.768 C 1131.45 501.548 1184.22 454.399 1192.66 441.737 C 1201.11 429.075 1203.92 416.429 1189.85 407.987 C 1175.78 399.546 1150.45 379.834 1143.41 372.8 C 1136.38 365.765 1125.13 362.962 1132.16 348.893 C 1139.2 334.824 1133.55 335.524 1120.88 322.862 C 1108.22 310.2 1084.81 284.775 1081.51 253.206 C 1075.18 192.709 1058.22 210.574 1066.38 180.425 C 1075.84 145.481 1091.11 149.386 1102.26 151.425 C 1107.93 153.738 1112.31 153.065 1115.26 147.706 C 1129.67 121.534 1127.64 74.671 1049.16 53.393 C 1045.94 -31.61 1073.85 -82.422 1099.79 -151.98 C 1001.31 -202.63 962.018 -208.23 862.039 -208.23 C 860.885 -208.23 859.722 -208.25 858.57 -208.23 C 858.191 -208.23 857.824 -208.24 857.445 -208.23 Z M 1043.48 -140.54 C 1043.55 -140.55 1043.62 -140.54 1043.69 -140.54 C 1043.77 -140.55 1043.84 -140.54 1043.91 -140.54 C 1043.99 -140.55 1044.06 -140.54 1044.13 -140.54 C 1044.28 -140.55 1044.43 -140.54 1044.57 -140.54 C 1044.71 -140.55 1044.87 -140.54 1045.01 -140.54 C 1055.21 -140.76 1062.5 -138.54 1063.19 -137.26 C 1063.2 -137.25 1063.22 -137.22 1063.23 -137.2 C 1064.55 -133.42 1050.13 -102.82 1039.51 -67.013 C 1028.89 -31.203 1023.12 7.018 1018.2 8.425 C 1008.35 11.238 1004.14 1.394 990.07 -0.013 C 976.001 -1.42 970.356 7.022 961.914 -1.419 C 953.473 -9.861 957.684 -42.237 983.008 -97.107 C 998.696 -131.1 1025.25 -139.75 1043.48 -140.54 Z M 805.445 -25.107 C 805.605 -25.11 805.756 -25.104 805.914 -25.107 C 806.077 -25.11 806.253 -25.104 806.414 -25.107 C 806.58 -25.109 806.75 -25.105 806.914 -25.107 C 807.264 -25.111 807.604 -25.105 807.945 -25.107 C 815.921 -25.151 821.337 -24.458 823.695 -22.169 C 827.917 -18.066 827.924 -6.379 828.945 14.018 C 830.228 39.761 829.367 51.452 824.383 56.581 C 819.767 61.331 811.528 61.021 791.383 61.518 C 771.735 62.016 763.547 62.246 759.008 57.893 C 754.469 53.541 753.352 41.847 753.352 20.956 C 753.352 0.064 752.244 -14.219 755.602 -18.888 C 758.841 -23.391 771.275 -23.405 788.164 -24.294 C 794.709 -24.639 800.499 -24.996 805.445 -25.107 Z M 788.945 -6.45 C 788.528 -6.432 788.106 -6.396 787.664 -6.388 C 780.95 -6.27 774.229 -2.166 774.727 16.487 C 775.224 35.14 775.477 42.362 787.664 42.362 C 802.587 42.362 804.067 35.396 803.32 11.768 C 802.783 -5.084 801.784 -6.521 790.977 -6.45 C 790.723 -6.449 790.46 -6.455 790.195 -6.45 C 789.997 -6.447 789.806 -6.456 789.602 -6.45 C 789.448 -6.446 789.291 -6.456 789.133 -6.45 C 789.074 -6.448 789.005 -6.453 788.945 -6.45 Z M 968.852 30.362 C 968.888 30.359 968.939 30.364 968.977 30.362 C 968.983 30.362 969.001 30.362 969.008 30.362 C 969.048 30.362 969.097 30.363 969.133 30.362 C 969.326 30.356 969.504 30.364 969.695 30.362 C 993.858 30.121 1011.5 38.621 1011.16 44.987 C 1010.56 56.314 956.816 47.263 882.414 87.925 C 775.325 146.45 758.633 133.631 758.633 127.3 C 758.633 120.969 778.296 115.957 805.758 101.268 C 836.006 85.089 883.847 59.777 926.758 40.081 C 941.341 33.387 955.796 30.666 968.539 30.393 C 968.648 30.391 968.742 30.371 968.852 30.362 Z M 980.633 98.3 C 994.11 97.832 1008.25 104.405 1031.57 114.643 C 1060.41 127.305 1054.06 139.26 1051.94 157.55 C 1049.84 175.839 1039.31 194.127 1028.76 194.831 C 1018.21 195.534 1023.13 184.29 1021.73 172.331 C 1020.32 160.372 1016.09 143.487 1002.73 143.487 C 989.361 143.487 990.056 161.777 987.945 176.55 C 985.835 191.322 975.294 206.077 964.039 214.518 C 953.03 222.775 931.923 232.383 930.328 232.8 C 931.795 231.247 950.261 169.801 955.574 151.929 C 963.312 125.902 954.188 104.786 971.07 99.862 C 974.302 98.92 977.443 98.41 980.633 98.3 Z M 935.633 101.893 C 935.636 101.894 935.662 101.893 935.664 101.893 C 940.35 122.992 942.992 164.945 892.633 256.3 C 866.264 304.134 843.038 306.322 812.789 309.487 C 749.413 316.12 737.197 290.39 742.227 271.518 C 751.488 264.261 762.325 257.456 769.164 257.456 C 787.454 257.456 795.904 268.707 817.008 265.893 C 838.111 263.08 855.008 236.331 855.008 236.331 C 855.008 236.331 831.076 240.557 818.414 225.081 C 808.242 212.648 798.188 205.743 785.258 202.737 C 784.09 195.148 783.408 186.183 784.664 178.643 C 785.996 170.652 788.91 161.094 791.602 153.237 C 794.489 152.735 797.351 152.184 800.195 151.581 C 800.198 151.581 800.224 151.581 800.227 151.581 C 807.787 151.953 810.371 155.11 816.289 161.768 C 827.544 174.43 839.512 182.865 864.133 175.831 C 884.436 170.03 897.195 153.339 898.602 135.05 C 899.41 124.547 903.697 117.041 910.664 111.237 C 910.67 111.231 910.69 111.211 910.695 111.206 C 910.706 111.206 910.747 111.206 910.758 111.206 C 910.763 111.2 910.784 111.18 910.789 111.175 C 910.792 111.172 910.818 111.147 910.82 111.143 C 919.107 107.798 927.362 104.666 935.633 101.893 Z M 735.477 156.112 C 744.657 156.727 754.445 156.732 764.695 156.237 L 756.445 205.768 C 750.48 208.298 744.068 211.594 737.945 215.05 C 736.268 193.005 735.674 171.155 735.477 156.112 Z" id="path-2"/>
  </g>
</svg>