<?xml version="1.0" encoding="utf-8"?>
<svg xmlns="http://www.w3.org/2000/svg" viewBox="25.9999 0 350.0001 580" width="350px" height="580px">
  <g id="svg2343" transform="matrix(0.6499220728874207, 0, 0, 0.6499220728874207, -28.170818328857422, 212.4289093017578)" style="">
    <path style="opacity: 1; fill: black; fill-opacity: 1; stroke: none; stroke-opacity: 1; stroke-width: 1;" d="M 461.277 -306.85 C 440.821 -304.9 413.66 -292.74 390.871 -242.22 C 390.288 -243.43 371.286 -282.13 326.34 -299.79 C 327.695 -297.88 341.674 -275.5 311.309 -203.38 C 311.309 -203.38 294.378 -243.19 247.621 -273.04 C 233.503 -197.15 228.784 -164.32 251.496 -91.224 C 247.88 -73.811 246.883 -57.269 257.59 -45.224 C 266.319 -35.403 278.615 -24.825 277.121 -18.193 C 185.961 12.671 120.277 98.994 120.277 200.526 C 120.277 327.928 223.688 431.307 351.09 431.307 C 478.492 431.307 581.871 327.928 581.871 200.526 C 581.871 99.476 516.846 13.48 426.371 -17.755 C 425.525 -29.298 428.633 -35.124 443.621 -42.224 C 462.523 -51.178 455.565 -88.979 432.684 -101.91 C 430.436 -103.18 427 -104.61 422.621 -106.1 C 422.965 -122.02 435.279 -137.15 447.59 -148.69 C 463.507 -163.62 467.476 -205.37 457.527 -222.29 C 447.579 -239.2 446.263 -260.45 461.527 -306.85 C 461.447 -306.84 461.358 -306.86 461.277 -306.85 Z M 353.09 -253.13 C 375.971 -222.29 370.99 -173.56 381.934 -172.57 C 392.877 -171.57 398.86 -228.28 426.715 -251.16 C 442.632 -210.37 452.565 -183.5 423.715 -158.63 C 394.865 -133.76 397.541 -117.86 396.84 -99.94 C 396.176 -82.972 394.877 -74.052 371.996 -71.068 C 349.115 -68.083 330.194 -99.94 326.215 -146.69 C 322.236 -193.45 357.069 -233.23 353.09 -253.13 Z M 268.527 -230.25 C 268.527 -230.25 283.454 -206.37 293.402 -179.5 C 303.351 -152.65 298.375 -123.8 329.215 -73.068 C 329.211 -73.065 329.187 -73.039 329.184 -73.037 C 329.179 -73.031 329.158 -73.011 329.152 -73.005 C 329.146 -73 329.127 -72.979 329.121 -72.974 C 329.105 -72.966 329.071 -72.949 329.059 -72.943 C 326.882 -71.974 303.014 -71.497 276.465 -99.94 C 248.61 -129.79 247.636 -171.56 268.527 -230.25 Z M 323.715 9.526 C 250.097 97.071 318.77 101.882 373.965 82.62 C 429.006 63.411 549.537 91.572 563.465 184.588 C 524.169 142.806 443.288 126.014 367.996 203.995 C 298.358 276.12 198.377 340.004 156.59 236.838 C 126.776 163.233 171.009 22.459 323.715 9.526 Z M 487.871 315.932 C 466.482 388.555 377.444 415.9 319.246 373.62 C 358.044 368.646 443.601 339.311 487.871 315.932 Z M 207.84 333.338 C 228.234 343.287 245.623 355.202 258.059 377.088 C 235.675 373.606 214.804 356.22 207.84 333.338 Z" id="path2352"/>
    <path style="opacity: 1; fill: white; fill-opacity: 1; stroke: none; stroke-opacity: 1; stroke-width: 1;" d="M 461.277 -326.85 C 440.821 -324.9 413.66 -312.74 390.871 -262.22 C 390.288 -263.43 371.286 -302.13 326.34 -319.79 C 327.695 -317.88 341.674 -295.5 311.309 -223.38 C 311.309 -223.38 294.378 -263.19 247.621 -293.04 C 233.503 -217.15 228.784 -184.32 251.496 -111.22 C 247.88 -93.811 246.883 -77.269 257.59 -65.224 C 266.319 -55.403 278.615 -44.825 277.121 -38.193 C 185.961 -7.329 120.277 78.994 120.277 180.526 C 120.277 307.928 223.688 411.307 351.09 411.307 C 478.492 411.307 581.871 307.928 581.871 180.526 C 581.871 79.476 516.846 -6.52 426.371 -37.755 C 425.525 -49.298 428.633 -55.124 443.621 -62.224 C 462.523 -71.178 455.565 -108.98 432.684 -121.91 C 430.436 -123.18 427 -124.61 422.621 -126.1 C 422.965 -142.02 435.279 -157.15 447.59 -168.69 C 463.507 -183.62 467.476 -225.37 457.527 -242.29 C 447.579 -259.2 446.263 -280.45 461.527 -326.85 C 461.447 -326.84 461.358 -326.86 461.277 -326.85 Z M 353.09 -273.13 C 375.971 -242.29 370.99 -193.56 381.934 -192.57 C 392.877 -191.57 398.86 -248.28 426.715 -271.16 C 442.632 -230.37 452.565 -203.5 423.715 -178.63 C 394.865 -153.76 397.541 -137.86 396.84 -119.94 C 396.176 -102.97 394.877 -94.052 371.996 -91.068 C 349.115 -88.083 330.194 -119.94 326.215 -166.69 C 322.236 -213.45 357.069 -253.23 353.09 -273.13 Z M 268.527 -250.25 C 268.527 -250.25 283.454 -226.37 293.402 -199.5 C 303.351 -172.65 298.375 -143.8 329.215 -93.068 C 329.211 -93.065 329.187 -93.039 329.184 -93.037 C 329.179 -93.031 329.158 -93.011 329.152 -93.005 C 329.146 -93 329.127 -92.979 329.121 -92.974 C 329.105 -92.966 329.071 -92.949 329.059 -92.943 C 326.882 -91.974 303.014 -91.497 276.465 -119.94 C 248.61 -149.79 247.636 -191.56 268.527 -250.25 Z M 323.715 -10.474 C 250.097 77.071 318.77 81.882 373.965 62.62 C 429.006 43.411 549.537 71.572 563.465 164.588 C 524.169 122.806 443.288 106.014 367.996 183.995 C 298.358 256.12 198.377 320.004 156.59 216.838 C 126.776 143.233 171.009 2.459 323.715 -10.474 Z M 487.871 295.932 C 466.482 368.555 377.444 395.9 319.246 353.62 C 358.044 348.646 443.601 319.311 487.871 295.932 Z M 207.84 313.338 C 228.234 323.287 245.623 335.202 258.059 357.088 C 235.675 353.606 214.804 336.22 207.84 313.338 Z" id="path-2"/>
  </g>
</svg>